<mxfile host="app.diagrams.net" modified="2024-03-07T15:07:39.042Z" agent="Mozilla/5.0 (Windows NT 10.0; Win64; x64) AppleWebKit/537.36 (KHTML, like Gecko) Chrome/122.0.0.0 Safari/537.36 Edg/122.0.0.0" version="23.1.5" etag="86N_8XCVabIPaYVnpCH6" type="github">
  <diagram name="第 1 页" id="8bjldMGAq3fl1UrByE0X">
    <mxGraphModel>
      <root>
        <mxCell id="0" />
        <mxCell id="1" parent="0" />
      </root>
    </mxGraphModel>
  </diagram>
</mxfile>
